<?xml version="1.0" standalone="no"?><svg xmlns="http://www.w3.org/2000/svg" viewBox="0 0 1440 320"><path fill="#0099ff" fill-opacity="1" d="M0,96L18.5,122.7C36.9,149,74,203,111,218.7C147.7,235,185,213,222,202.7C258.5,192,295,192,332,208C369.2,224,406,256,443,256C480,256,517,224,554,229.3C590.8,235,628,277,665,277.3C701.5,277,738,235,775,213.3C812.3,192,849,192,886,181.3C923.1,171,960,149,997,149.3C1033.8,149,1071,171,1108,181.3C1144.6,192,1182,192,1218,176C1255.4,160,1292,128,1329,106.7C1366.2,85,1403,75,1422,69.3L1440,64L1440,0L1421.5,0C1403.1,0,1366,0,1329,0C1292.3,0,1255,0,1218,0C1181.5,0,1145,0,1108,0C1070.8,0,1034,0,997,0C960,0,923,0,886,0C849.2,0,812,0,775,0C738.5,0,702,0,665,0C627.7,0,591,0,554,0C516.9,0,480,0,443,0C406.2,0,369,0,332,0C295.4,0,258,0,222,0C184.6,0,148,0,111,0C73.8,0,37,0,18,0L0,0Z"></path></svg>