<svg id="visual" viewBox="0 0 900 600" width="900" height="600" xmlns="http://www.w3.org/2000/svg" xmlns:xlink="http://www.w3.org/1999/xlink" version="1.1"><rect x="0" y="0" width="900" height="600" fill="#1c2173"></rect><path d="M0 472L21.5 466.8C43 461.7 86 451.3 128.8 452.2C171.7 453 214.3 465 257.2 469C300 473 343 469 385.8 457.8C428.7 446.7 471.3 428.3 514.2 430.2C557 432 600 454 642.8 468.5C685.7 483 728.3 490 771.2 493.8C814 497.7 857 498.3 878.5 498.7L900 499L900 601L878.5 601C857 601 814 601 771.2 601C728.3 601 685.7 601 642.8 601C600 601 557 601 514.2 601C471.3 601 428.7 601 385.8 601C343 601 300 601 257.2 601C214.3 601 171.7 601 128.8 601C86 601 43 601 21.5 601L0 601Z" fill="#ffffff" stroke-linecap="round" stroke-linejoin="miter"></path></svg>