<svg id="visual" viewBox="0 0 675 900" width="675" height="900" xmlns="http://www.w3.org/2000/svg" xmlns:xlink="http://www.w3.org/1999/xlink" version="1.1"><rect x="0" y="0" width="675" height="900" fill="#1c2173"></rect><path d="M0 709L16 701.2C32 693.3 64 677.7 96.2 678.7C128.3 679.7 160.7 697.3 192.8 703.3C225 709.3 257 703.7 289.2 687C321.3 670.3 353.7 642.7 385.8 645.5C418 648.3 450 681.7 482.2 703.7C514.3 725.7 546.7 736.3 578.8 741.8C611 747.3 643 747.7 659 747.8L675 748L675 901L659 901C643 901 611 901 578.8 901C546.7 901 514.3 901 482.2 901C450 901 418 901 385.8 901C353.7 901 321.3 901 289.2 901C257 901 225 901 192.8 901C160.7 901 128.3 901 96.2 901C64 901 32 901 16 901L0 901Z" fill="#ffffff" stroke-linecap="round" stroke-linejoin="miter"></path></svg>